<?xml version="1.0" encoding="UTF-8" standalone="no"?><!DOCTYPE svg PUBLIC "-//W3C//DTD SVG 1.1//EN" "http://www.w3.org/Graphics/SVG/1.1/DTD/svg11.dtd"><svg width="100%" height="100%" viewBox="0 0 48 48" version="1.1" xmlns="http://www.w3.org/2000/svg" xmlns:xlink="http://www.w3.org/1999/xlink" xml:space="preserve" xmlns:serif="http://www.serif.com/" style="fill-rule:evenodd;clip-rule:evenodd;stroke-linejoin:round;stroke-miterlimit:1.41421;"><g><clipPath id="_clip1"><path d="M44.058,48l-39.364,0l19.682,-19.682l19.682,19.682Zm-23.925,-23.925l-20.133,20.134l0,-40.267l20.133,20.133Zm27.867,-19.381l0,38.762l-19.381,-19.381l19.381,-19.381Zm-23.624,15.139l-19.832,-19.833l39.665,0l-19.833,19.833Z"/></clipPath><g clip-path="url(#_clip1)"><path d="M13.628,41.075c-0.164,0.181 -0.392,0.375 -0.685,0.58c-0.293,0.205 -0.651,0.395 -1.073,0.571c-0.421,0.176 -0.909,0.321 -1.463,0.435c-0.554,0.114 -1.176,0.172 -1.868,0.172c-0.855,0 -1.629,-0.138 -2.32,-0.414c-0.691,-0.275 -1.283,-0.676 -1.775,-1.204c-0.493,-0.527 -0.872,-1.176 -1.139,-1.946c-0.266,-0.771 -0.399,-1.654 -0.399,-2.65l0,-0.712c0,-0.996 0.134,-1.881 0.404,-2.655c0.269,-0.773 0.646,-1.425 1.129,-1.955c0.484,-0.53 1.059,-0.933 1.727,-1.209c0.668,-0.275 1.401,-0.413 2.198,-0.413c0.884,0 1.643,0.107 2.276,0.321c0.633,0.214 1.16,0.514 1.582,0.901c0.422,0.387 0.744,0.847 0.967,1.38c0.222,0.533 0.366,1.119 0.43,1.758l-2.97,0c-0.047,-0.317 -0.119,-0.598 -0.216,-0.844c-0.096,-0.246 -0.231,-0.454 -0.404,-0.624c-0.173,-0.17 -0.387,-0.299 -0.642,-0.387c-0.254,-0.088 -0.561,-0.132 -0.918,-0.132c-0.369,0 -0.705,0.079 -1.006,0.238c-0.302,0.158 -0.558,0.397 -0.769,0.716c-0.211,0.319 -0.374,0.719 -0.488,1.2c-0.114,0.48 -0.172,1.043 -0.172,1.687l0,0.73c0,1.277 0.219,2.236 0.655,2.878c0.437,0.642 1.124,0.962 2.061,0.962c0.246,0 0.466,-0.016 0.659,-0.048c0.194,-0.032 0.364,-0.075 0.51,-0.127c0.147,-0.053 0.271,-0.112 0.374,-0.176c0.102,-0.065 0.186,-0.126 0.25,-0.185l0,-1.986l-2.144,0l0,-2.118l5.229,0l0,5.256Z" style="fill-rule:nonzero;"/><path d="M25.775,38.324c-0.03,0.668 -0.173,1.279 -0.431,1.832c-0.258,0.554 -0.615,1.029 -1.072,1.424c-0.457,0.396 -1.005,0.703 -1.644,0.923c-0.638,0.22 -1.353,0.33 -2.144,0.33c-0.856,0 -1.619,-0.144 -2.29,-0.431c-0.671,-0.287 -1.239,-0.699 -1.705,-1.235c-0.466,-0.536 -0.82,-1.189 -1.063,-1.96c-0.244,-0.77 -0.365,-1.636 -0.365,-2.597l0,-0.694c0,-0.961 0.127,-1.827 0.382,-2.598c0.255,-0.77 0.618,-1.425 1.09,-1.964c0.472,-0.539 1.039,-0.954 1.701,-1.244c0.662,-0.29 1.4,-0.435 2.215,-0.435c0.832,0 1.568,0.116 2.21,0.347c0.642,0.232 1.185,0.553 1.63,0.963c0.446,0.41 0.794,0.896 1.046,1.459c0.252,0.562 0.407,1.175 0.466,1.837l-3.076,0c-0.012,-0.358 -0.06,-0.674 -0.145,-0.949c-0.085,-0.276 -0.218,-0.504 -0.4,-0.686c-0.182,-0.182 -0.413,-0.319 -0.694,-0.413c-0.282,-0.094 -0.627,-0.141 -1.037,-0.141c-0.381,0 -0.712,0.071 -0.994,0.211c-0.281,0.141 -0.515,0.364 -0.703,0.668c-0.187,0.305 -0.326,0.699 -0.417,1.182c-0.091,0.484 -0.136,1.065 -0.136,1.745l0,0.712c0,0.68 0.041,1.26 0.123,1.74c0.082,0.481 0.212,0.875 0.391,1.182c0.178,0.308 0.413,0.532 0.703,0.673c0.29,0.14 0.646,0.211 1.068,0.211c0.709,0 1.251,-0.167 1.626,-0.501c0.375,-0.334 0.574,-0.865 0.597,-1.591l3.068,0Z" style="fill-rule:nonzero;"/><g><clipPath id="_clip2"><path d="M-1,0.152l48,0l0,47.848l-19,0l0,-19.848l-29,0l0,-28Z"/></clipPath><g clip-path="url(#_clip2)"><path d="M29.995,2.546l-12.996,5.132l-13.697,-4.385l0,37.158l14.192,4.401l14.193,-5.422l13.914,1.727l0,-37.017l-15.606,-1.594Zm12.006,6.942l-7.425,-1.495l-3.573,1.412l-6.39,0.498l-1.674,1.279l0.333,0.373l-0.063,0.806l-0.855,-0.042l-0.108,1.445l5.787,3.903l1.53,4.334l2.097,-2.101l-0.513,-1.054l-0.666,0.415l-0.54,-1.271l3.6,1.844l0.666,3.122l1.98,-3.155l0.54,1.436l1.224,1.262l0.288,-2.134l0.54,-0.282l1.278,-1.495l-0.99,-2.74l0.414,-0.398l1.26,1.345l0.09,-0.291l0.738,-4.318l0.414,0.249l0,16.641l-0.846,-0.333l-1.62,-0.124l-1.665,-1.08l0.18,-0.631l-1.44,-0.216l-3.114,3.106l0.405,3.903l5.328,0.871l0.045,1.121l1.404,0.349l1.305,-2.126l0,3.438l-10.8,-1.328l-13.806,5.272l-10.457,-3.238l0,-24.163l1.476,-0.042l0.306,2.591l-1.008,2.541l2.826,4.924l1.043,-1.943l-1.106,0.639l-0.234,-1.744l2.051,-0.913l0.234,1.021l0.09,0.025l2.88,-4.301l0.027,0.017l-0.288,-1.121l1.98,-0.855l-1.818,-2.375l-0.684,-1.644l-7.757,0.581l0,-3.338l10.232,3.271l13.41,-5.289l11.457,1.163l0,2.374l-0.018,0.009Z" style="fill-rule:nonzero;"/><path d="M18.925,29.366l-2.61,-2.076l0.09,-1.27l-2.817,-1.868l-1.62,0.664l-2.726,3.803l3.824,2.906l-0.054,3.587l2.322,4.251l1.197,-2.922l-0.153,-1.345" style="fill-rule:nonzero;"/><path d="M27.664,21.088l-1.683,0.357l-0.36,-2.45l-0.45,-0.166l-0.27,0.498l-1.575,-1.287l-4.716,3.471l0,2.026l3.285,1.462l0.063,-0.532l1.962,1.528l-0.792,0.581l0.414,0.947l0,3.006l1.233,4.018l5.58,-10.811l-1.287,0.059" style="fill-rule:nonzero;"/><path d="M18.709,21.295l0,0.1l0,-0.1" style="fill-rule:nonzero;"/></g></g></g></g></svg>